STARTFONT 2.1
FONT -gmnbox-gmnterm-medium-r-normal--10-110-75-75-P-50-ISO8859-1
SIZE 11 75 75
FONTBOUNDINGBOX 10 12 -2 -3

STARTPROPERTIES 22
POINT_SIZE 110
PIXEL_SIZE 10
RESOLUTION_X 75
RESOLUTION_Y 75
AVERAGE_WIDTH 50
SPACING "P"
FOUNDRY "gmnbox"
FAMILY_NAME "gmnterm"
WEIGHT_NAME "medium"
SLANT "r"
SETWIDTH_NAME "normal"
ADD_STYLE_NAME ""
CHARSET_REGISTRY "ISO8859"
CHARSET_ENCODING "1"
X_HEIGHT 6
_GBDFED_INFO "Edited with gbdfed 1.6."
COPYRIGHT "Gmnterm by ObliviousGmn"
WEIGHT 10
QUAD_WIDTH 5
DEFAULT_CHAR 0
FONT_DESCENT 2
FONT_ASCENT 8
ENDPROPERTIES

CHARS 507

STARTCHAR char1
ENCODING 1
SWIDTH 436 0
DWIDTH 5 0
BBX 4 5 1 0
BITMAP
60
90
90
F0
90
ENDCHAR

STARTCHAR char2
ENCODING 2
SWIDTH 436 0
DWIDTH 5 0
BBX 4 5 1 0
BITMAP
E0
90
E0
90
E0
ENDCHAR

STARTCHAR char3
ENCODING 3
SWIDTH 436 0
DWIDTH 5 0
BBX 4 5 1 0
BITMAP
70
80
80
80
70
ENDCHAR

STARTCHAR char4
ENCODING 4
SWIDTH 436 0
DWIDTH 5 0
BBX 4 5 1 0
BITMAP
E0
90
90
90
E0
ENDCHAR

STARTCHAR char5
ENCODING 5
SWIDTH 436 0
DWIDTH 5 0
BBX 4 5 1 0
BITMAP
F0
80
E0
80
F0
ENDCHAR

STARTCHAR char6
ENCODING 6
SWIDTH 436 0
DWIDTH 5 0
BBX 4 5 1 0
BITMAP
F0
80
E0
80
80
ENDCHAR

STARTCHAR char7
ENCODING 7
SWIDTH 436 0
DWIDTH 5 0
BBX 4 5 1 0
BITMAP
70
80
B0
90
70
ENDCHAR

STARTCHAR char8
ENCODING 8
SWIDTH 436 0
DWIDTH 5 0
BBX 4 5 1 0
BITMAP
90
90
F0
90
90
ENDCHAR

STARTCHAR char9
ENCODING 9
SWIDTH 436 0
DWIDTH 5 0
BBX 3 5 1 0
BITMAP
E0
40
40
40
E0
ENDCHAR

STARTCHAR char10
ENCODING 10
SWIDTH 436 0
DWIDTH 5 0
BBX 4 5 1 0
BITMAP
30
10
10
90
60
ENDCHAR

STARTCHAR char11
ENCODING 11
SWIDTH 436 0
DWIDTH 5 0
BBX 4 5 1 0
BITMAP
90
A0
C0
A0
90
ENDCHAR

STARTCHAR char12
ENCODING 12
SWIDTH 436 0
DWIDTH 5 0
BBX 4 5 1 0
BITMAP
80
80
80
80
F0
ENDCHAR

STARTCHAR char13
ENCODING 13
SWIDTH 436 0
DWIDTH 5 0
BBX 4 5 1 0
BITMAP
90
F0
F0
90
90
ENDCHAR

STARTCHAR char14
ENCODING 14
SWIDTH 436 0
DWIDTH 5 0
BBX 4 5 1 0
BITMAP
90
D0
B0
90
90
ENDCHAR

STARTCHAR char15
ENCODING 15
SWIDTH 436 0
DWIDTH 5 0
BBX 4 5 1 0
BITMAP
60
90
90
90
60
ENDCHAR

STARTCHAR char16
ENCODING 16
SWIDTH 436 0
DWIDTH 5 0
BBX 4 5 1 0
BITMAP
E0
90
E0
80
80
ENDCHAR

STARTCHAR char17
ENCODING 17
SWIDTH 436 0
DWIDTH 5 0
BBX 4 6 1 -1
BITMAP
60
90
90
90
60
30
ENDCHAR

STARTCHAR char18
ENCODING 18
SWIDTH 436 0
DWIDTH 5 0
BBX 4 5 1 0
BITMAP
E0
90
E0
A0
90
ENDCHAR

STARTCHAR char19
ENCODING 19
SWIDTH 436 0
DWIDTH 5 0
BBX 4 5 1 0
BITMAP
70
80
60
10
E0
ENDCHAR

STARTCHAR char20
ENCODING 20
SWIDTH 436 0
DWIDTH 5 0
BBX 5 5 0 0
BITMAP
F8
20
20
20
20
ENDCHAR

STARTCHAR char21
ENCODING 21
SWIDTH 436 0
DWIDTH 5 0
BBX 4 5 1 0
BITMAP
90
90
90
90
60
ENDCHAR

STARTCHAR char22
ENCODING 22
SWIDTH 436 0
DWIDTH 5 0
BBX 4 5 1 0
BITMAP
90
90
90
60
60
ENDCHAR

STARTCHAR char23
ENCODING 23
SWIDTH 436 0
DWIDTH 5 0
BBX 4 5 1 0
BITMAP
90
90
F0
F0
90
ENDCHAR

STARTCHAR char24
ENCODING 24
SWIDTH 436 0
DWIDTH 5 0
BBX 4 5 1 0
BITMAP
90
90
60
90
90
ENDCHAR

STARTCHAR char25
ENCODING 25
SWIDTH 436 0
DWIDTH 5 0
BBX 5 5 0 0
BITMAP
88
50
20
20
20
ENDCHAR

STARTCHAR char26
ENCODING 26
SWIDTH 436 0
DWIDTH 5 0
BBX 4 5 1 0
BITMAP
F0
20
40
80
F0
ENDCHAR

STARTCHAR char27
ENCODING 27
SWIDTH 436 0
DWIDTH 5 0
BBX 0 0 0 0
BITMAP
ENDCHAR

STARTCHAR char28
ENCODING 28
SWIDTH 436 0
DWIDTH 5 0
BBX 0 0 0 0
BITMAP
ENDCHAR

STARTCHAR char29
ENCODING 29
SWIDTH 436 0
DWIDTH 5 0
BBX 0 0 0 0
BITMAP
ENDCHAR

STARTCHAR char30
ENCODING 30
SWIDTH 436 0
DWIDTH 5 0
BBX 0 0 0 0
BITMAP
ENDCHAR

STARTCHAR char31
ENCODING 31
SWIDTH 436 0
DWIDTH 5 0
BBX 0 0 0 0
BITMAP
ENDCHAR

STARTCHAR char32
ENCODING 32
SWIDTH 436 0
DWIDTH 5 0
BBX 0 0 0 0
BITMAP
ENDCHAR

STARTCHAR char33
ENCODING 33
SWIDTH 436 0
DWIDTH 5 0
BBX 1 6 2 0
BITMAP
80
80
80
80
00
80
ENDCHAR

STARTCHAR char34
ENCODING 34
SWIDTH 436 0
DWIDTH 5 0
BBX 3 3 1 4
BITMAP
A0
A0
A0
ENDCHAR

STARTCHAR char35
ENCODING 35
SWIDTH 436 0
DWIDTH 5 0
BBX 5 5 0 0
BITMAP
50
D8
50
D8
50
ENDCHAR

STARTCHAR char36
ENCODING 36
SWIDTH 436 0
DWIDTH 5 0
BBX 5 7 0 0
BITMAP
20
78
A0
70
28
F0
20
ENDCHAR

STARTCHAR char37
ENCODING 37
SWIDTH 436 0
DWIDTH 5 0
BBX 4 6 1 0
BITMAP
80
90
20
40
90
10
ENDCHAR

STARTCHAR char38
ENCODING 38
SWIDTH 436 0
DWIDTH 5 0
BBX 5 6 0 0
BITMAP
40
A0
40
A8
90
68
ENDCHAR

STARTCHAR char39
ENCODING 39
SWIDTH 436 0
DWIDTH 5 0
BBX 2 3 1 4
BITMAP
40
40
80
ENDCHAR

STARTCHAR char40
ENCODING 40
SWIDTH 436 0
DWIDTH 5 0
BBX 2 8 2 -1
BITMAP
40
80
80
80
80
80
80
40
ENDCHAR

STARTCHAR char41
ENCODING 41
SWIDTH 436 0
DWIDTH 5 0
BBX 2 8 2 -1
BITMAP
80
40
40
40
40
40
40
80
ENDCHAR

STARTCHAR char42
ENCODING 42
SWIDTH 436 0
DWIDTH 5 0
BBX 4 5 1 0
BITMAP
90
60
F0
60
90
ENDCHAR

STARTCHAR char43
ENCODING 43
SWIDTH 436 0
DWIDTH 5 0
BBX 5 5 0 1
BITMAP
20
20
F8
20
20
ENDCHAR

STARTCHAR char44
ENCODING 44
SWIDTH 436 0
DWIDTH 5 0
BBX 2 3 1 -1
BITMAP
40
40
80
ENDCHAR

STARTCHAR char45
ENCODING 45
SWIDTH 436 0
DWIDTH 5 0
BBX 4 1 1 3
BITMAP
F0
ENDCHAR

STARTCHAR char46
ENCODING 46
SWIDTH 436 0
DWIDTH 5 0
BBX 1 2 2 0
BITMAP
80
80
ENDCHAR

STARTCHAR char47
ENCODING 47
SWIDTH 436 0
DWIDTH 5 0
BBX 4 6 1 0
BITMAP
10
20
20
40
40
80
ENDCHAR

STARTCHAR char48
ENCODING 48
SWIDTH 436 0
DWIDTH 5 0
BBX 4 6 1 0
BITMAP
60
90
B0
D0
90
60
ENDCHAR

STARTCHAR char49
ENCODING 49
SWIDTH 436 0
DWIDTH 5 0
BBX 3 6 1 0
BITMAP
40
C0
40
40
40
E0
ENDCHAR

STARTCHAR char50
ENCODING 50
SWIDTH 436 0
DWIDTH 5 0
BBX 4 6 1 0
BITMAP
E0
10
10
60
80
F0
ENDCHAR

STARTCHAR char51
ENCODING 51
SWIDTH 436 0
DWIDTH 5 0
BBX 4 6 1 0
BITMAP
E0
10
60
10
10
E0
ENDCHAR

STARTCHAR char52
ENCODING 52
SWIDTH 436 0
DWIDTH 5 0
BBX 4 6 1 0
BITMAP
90
90
90
70
10
10
ENDCHAR

STARTCHAR char53
ENCODING 53
SWIDTH 436 0
DWIDTH 5 0
BBX 4 6 1 0
BITMAP
F0
80
E0
10
10
E0
ENDCHAR

STARTCHAR char54
ENCODING 54
SWIDTH 436 0
DWIDTH 5 0
BBX 4 6 1 0
BITMAP
60
80
E0
90
90
60
ENDCHAR

STARTCHAR char55
ENCODING 55
SWIDTH 436 0
DWIDTH 5 0
BBX 4 6 1 0
BITMAP
F0
10
20
20
40
40
ENDCHAR

STARTCHAR char56
ENCODING 56
SWIDTH 436 0
DWIDTH 5 0
BBX 4 6 1 0
BITMAP
60
90
60
90
90
60
ENDCHAR

STARTCHAR char57
ENCODING 57
SWIDTH 436 0
DWIDTH 5 0
BBX 4 6 1 0
BITMAP
60
90
90
70
10
60
ENDCHAR

STARTCHAR char58
ENCODING 58
SWIDTH 436 0
DWIDTH 5 0
BBX 1 5 2 0
BITMAP
80
80
00
80
80
ENDCHAR

STARTCHAR char59
ENCODING 59
SWIDTH 436 0
DWIDTH 5 0
BBX 2 6 1 -1
BITMAP
40
40
00
40
40
80
ENDCHAR

STARTCHAR char60
ENCODING 60
SWIDTH 436 0
DWIDTH 5 0
BBX 3 5 1 1
BITMAP
20
40
80
40
20
ENDCHAR

STARTCHAR char61
ENCODING 61
SWIDTH 436 0
DWIDTH 5 0
BBX 4 3 1 2
BITMAP
F0
00
F0
ENDCHAR

STARTCHAR char62
ENCODING 62
SWIDTH 436 0
DWIDTH 5 0
BBX 3 5 2 1
BITMAP
80
40
20
40
80
ENDCHAR

STARTCHAR char63
ENCODING 63
SWIDTH 436 0
DWIDTH 5 0
BBX 4 6 1 0
BITMAP
E0
10
20
40
00
40
ENDCHAR

STARTCHAR char64
ENCODING 64
SWIDTH 436 0
DWIDTH 5 0
BBX 4 6 1 0
BITMAP
60
90
B0
B0
80
60
ENDCHAR

STARTCHAR char65
ENCODING 65
SWIDTH 436 0
DWIDTH 5 0
BBX 4 6 1 0
BITMAP
60
90
90
F0
90
90
ENDCHAR

STARTCHAR char66
ENCODING 66
SWIDTH 436 0
DWIDTH 5 0
BBX 4 6 1 0
BITMAP
E0
90
E0
90
90
E0
ENDCHAR

STARTCHAR char67
ENCODING 67
SWIDTH 436 0
DWIDTH 5 0
BBX 4 6 1 0
BITMAP
70
80
80
80
80
70
ENDCHAR

STARTCHAR char68
ENCODING 68
SWIDTH 436 0
DWIDTH 5 0
BBX 4 6 1 0
BITMAP
E0
90
90
90
90
E0
ENDCHAR

STARTCHAR char69
ENCODING 69
SWIDTH 436 0
DWIDTH 5 0
BBX 4 6 1 0
BITMAP
F0
80
E0
80
80
F0
ENDCHAR

STARTCHAR char70
ENCODING 70
SWIDTH 436 0
DWIDTH 5 0
BBX 4 6 1 0
BITMAP
F0
80
E0
80
80
80
ENDCHAR

STARTCHAR char71
ENCODING 71
SWIDTH 436 0
DWIDTH 5 0
BBX 4 6 1 0
BITMAP
60
80
B0
90
90
60
ENDCHAR

STARTCHAR char72
ENCODING 72
SWIDTH 436 0
DWIDTH 5 0
BBX 4 6 1 0
BITMAP
90
90
F0
90
90
90
ENDCHAR

STARTCHAR char73
ENCODING 73
SWIDTH 436 0
DWIDTH 5 0
BBX 3 6 1 0
BITMAP
E0
40
40
40
40
E0
ENDCHAR

STARTCHAR char74
ENCODING 74
SWIDTH 436 0
DWIDTH 5 0
BBX 4 6 1 0
BITMAP
70
10
10
10
90
60
ENDCHAR

STARTCHAR char75
ENCODING 75
SWIDTH 436 0
DWIDTH 5 0
BBX 4 6 1 0
BITMAP
90
A0
C0
A0
90
90
ENDCHAR

STARTCHAR char76
ENCODING 76
SWIDTH 436 0
DWIDTH 5 0
BBX 4 6 1 0
BITMAP
80
80
80
80
80
F0
ENDCHAR

STARTCHAR char77
ENCODING 77
SWIDTH 436 0
DWIDTH 5 0
BBX 4 6 1 0
BITMAP
90
F0
90
90
90
90
ENDCHAR

STARTCHAR char78
ENCODING 78
SWIDTH 436 0
DWIDTH 5 0
BBX 4 6 1 0
BITMAP
E0
90
90
90
90
90
ENDCHAR

STARTCHAR char79
ENCODING 79
SWIDTH 436 0
DWIDTH 5 0
BBX 4 6 1 0
BITMAP
60
90
90
90
90
60
ENDCHAR

STARTCHAR char80
ENCODING 80
SWIDTH 436 0
DWIDTH 5 0
BBX 4 6 1 0
BITMAP
E0
90
90
E0
80
80
ENDCHAR

STARTCHAR char81
ENCODING 81
SWIDTH 436 0
DWIDTH 5 0
BBX 4 7 1 -1
BITMAP
60
90
90
90
90
60
30
ENDCHAR

STARTCHAR char82
ENCODING 82
SWIDTH 436 0
DWIDTH 5 0
BBX 4 6 1 0
BITMAP
E0
90
90
E0
90
90
ENDCHAR

STARTCHAR char83
ENCODING 83
SWIDTH 436 0
DWIDTH 5 0
BBX 4 6 1 0
BITMAP
70
80
60
10
10
E0
ENDCHAR

STARTCHAR char84
ENCODING 84
SWIDTH 436 0
DWIDTH 5 0
BBX 5 6 0 0
BITMAP
F8
20
20
20
20
20
ENDCHAR

STARTCHAR char85
ENCODING 85
SWIDTH 436 0
DWIDTH 5 0
BBX 4 6 1 0
BITMAP
90
90
90
90
90
70
ENDCHAR

STARTCHAR char86
ENCODING 86
SWIDTH 436 0
DWIDTH 5 0
BBX 4 6 1 0
BITMAP
90
90
90
90
60
60
ENDCHAR

STARTCHAR char87
ENCODING 87
SWIDTH 436 0
DWIDTH 5 0
BBX 4 6 1 0
BITMAP
90
90
90
90
F0
90
ENDCHAR

STARTCHAR char88
ENCODING 88
SWIDTH 436 0
DWIDTH 5 0
BBX 4 6 1 0
BITMAP
90
90
60
90
90
90
ENDCHAR

STARTCHAR char89
ENCODING 89
SWIDTH 436 0
DWIDTH 5 0
BBX 5 6 0 0
BITMAP
88
50
20
20
20
20
ENDCHAR

STARTCHAR char90
ENCODING 90
SWIDTH 436 0
DWIDTH 5 0
BBX 4 6 1 0
BITMAP
F0
10
20
40
80
F0
ENDCHAR

STARTCHAR char91
ENCODING 91
SWIDTH 436 0
DWIDTH 5 0
BBX 2 6 2 0
BITMAP
C0
80
80
80
80
C0
ENDCHAR

STARTCHAR char92
ENCODING 92
SWIDTH 436 0
DWIDTH 5 0
BBX 4 6 0 0
BITMAP
80
40
40
20
20
10
ENDCHAR

STARTCHAR char93
ENCODING 93
SWIDTH 436 0
DWIDTH 5 0
BBX 2 6 1 0
BITMAP
C0
40
40
40
40
C0
ENDCHAR

STARTCHAR char94
ENCODING 94
SWIDTH 436 0
DWIDTH 5 0
BBX 5 3 0 4
BITMAP
20
50
88
ENDCHAR

STARTCHAR char95
ENCODING 95
SWIDTH 436 0
DWIDTH 5 0
BBX 4 1 1 -1
BITMAP
F0
ENDCHAR

STARTCHAR char96
ENCODING 96
SWIDTH 436 0
DWIDTH 5 0
BBX 2 3 2 4
BITMAP
80
80
40
ENDCHAR

STARTCHAR char97
ENCODING 97
SWIDTH 436 0
DWIDTH 5 0
BBX 4 5 1 0
BITMAP
70
90
90
B0
50
ENDCHAR

STARTCHAR char98
ENCODING 98
SWIDTH 436 0
DWIDTH 5 0
BBX 4 7 1 0
BITMAP
80
80
E0
90
90
90
E0
ENDCHAR

STARTCHAR char99
ENCODING 99
SWIDTH 436 0
DWIDTH 5 0
BBX 4 5 1 0
BITMAP
70
80
80
80
70
ENDCHAR

STARTCHAR char100
ENCODING 100
SWIDTH 436 0
DWIDTH 5 0
BBX 4 7 1 0
BITMAP
10
10
70
90
90
90
70
ENDCHAR

STARTCHAR char101
ENCODING 101
SWIDTH 436 0
DWIDTH 5 0
BBX 4 5 1 0
BITMAP
60
90
F0
80
70
ENDCHAR

STARTCHAR char102
ENCODING 102
SWIDTH 436 0
DWIDTH 5 0
BBX 3 7 1 0
BITMAP
20
40
E0
40
40
40
40
ENDCHAR

STARTCHAR char103
ENCODING 103
SWIDTH 436 0
DWIDTH 5 0
BBX 4 7 1 -2
BITMAP
70
90
90
90
70
10
60
ENDCHAR

STARTCHAR char104
ENCODING 104
SWIDTH 436 0
DWIDTH 5 0
BBX 4 7 1 0
BITMAP
80
80
E0
90
90
90
90
ENDCHAR

STARTCHAR char105
ENCODING 105
SWIDTH 436 0
DWIDTH 5 0
BBX 2 6 2 0
BITMAP
80
00
80
80
80
40
ENDCHAR

STARTCHAR char106
ENCODING 106
SWIDTH 436 0
DWIDTH 5 0
BBX 3 9 1 -2
BITMAP
20
00
20
20
20
20
20
20
C0
ENDCHAR

STARTCHAR char107
ENCODING 107
SWIDTH 436 0
DWIDTH 5 0
BBX 4 7 1 0
BITMAP
80
80
90
A0
C0
A0
90
ENDCHAR

STARTCHAR char108
ENCODING 108
SWIDTH 436 0
DWIDTH 5 0
BBX 2 7 2 0
BITMAP
80
80
80
80
80
80
40
ENDCHAR

STARTCHAR char109
ENCODING 109
SWIDTH 436 0
DWIDTH 5 0
BBX 4 5 1 0
BITMAP
90
F0
90
90
90
ENDCHAR

STARTCHAR char110
ENCODING 110
SWIDTH 436 0
DWIDTH 5 0
BBX 4 5 1 0
BITMAP
E0
90
90
90
90
ENDCHAR

STARTCHAR char111
ENCODING 111
SWIDTH 436 0
DWIDTH 5 0
BBX 4 5 1 0
BITMAP
60
90
90
90
60
ENDCHAR

STARTCHAR char112
ENCODING 112
SWIDTH 436 0
DWIDTH 5 0
BBX 4 7 1 -2
BITMAP
E0
90
90
90
E0
80
80
ENDCHAR

STARTCHAR char113
ENCODING 113
SWIDTH 436 0
DWIDTH 5 0
BBX 4 7 1 -2
BITMAP
70
90
90
90
70
10
10
ENDCHAR

STARTCHAR char114
ENCODING 114
SWIDTH 436 0
DWIDTH 5 0
BBX 4 5 1 0
BITMAP
B0
C0
80
80
80
ENDCHAR

STARTCHAR char115
ENCODING 115
SWIDTH 436 0
DWIDTH 5 0
BBX 4 5 1 0
BITMAP
70
80
60
10
E0
ENDCHAR

STARTCHAR char116
ENCODING 116
SWIDTH 436 0
DWIDTH 5 0
BBX 3 6 1 0
BITMAP
40
E0
40
40
40
20
ENDCHAR

STARTCHAR char117
ENCODING 117
SWIDTH 436 0
DWIDTH 5 0
BBX 4 5 1 0
BITMAP
90
90
90
90
70
ENDCHAR

STARTCHAR char118
ENCODING 118
SWIDTH 436 0
DWIDTH 5 0
BBX 4 5 1 0
BITMAP
90
90
90
60
60
ENDCHAR

STARTCHAR char119
ENCODING 119
SWIDTH 436 0
DWIDTH 5 0
BBX 4 5 1 0
BITMAP
90
90
90
F0
90
ENDCHAR

STARTCHAR char120
ENCODING 120
SWIDTH 436 0
DWIDTH 5 0
BBX 4 5 1 0
BITMAP
90
90
60
90
90
ENDCHAR

STARTCHAR char121
ENCODING 121
SWIDTH 436 0
DWIDTH 5 0
BBX 4 7 1 -2
BITMAP
90
90
90
90
70
10
60
ENDCHAR

STARTCHAR char122
ENCODING 122
SWIDTH 436 0
DWIDTH 5 0
BBX 4 5 1 0
BITMAP
F0
20
40
80
F0
ENDCHAR

STARTCHAR char123
ENCODING 123
SWIDTH 436 0
DWIDTH 5 0
BBX 3 8 1 -1
BITMAP
20
40
40
C0
40
40
40
20
ENDCHAR

STARTCHAR char124
ENCODING 124
SWIDTH 436 0
DWIDTH 5 0
BBX 1 9 2 -1
BITMAP
80
80
80
80
80
80
80
80
80
ENDCHAR

STARTCHAR char125
ENCODING 125
SWIDTH 436 0
DWIDTH 5 0
BBX 3 8 2 -1
BITMAP
80
40
40
60
40
40
40
80
ENDCHAR

STARTCHAR char126
ENCODING 126
SWIDTH 436 0
DWIDTH 5 0
BBX 5 3 0 3
BITMAP
40
A8
10
ENDCHAR

STARTCHAR char127
ENCODING 127
SWIDTH 436 0
DWIDTH 5 0
BBX 5 6 0 0
BITMAP
20
20
50
50
88
F8
ENDCHAR

STARTCHAR char174
ENCODING 174
SWIDTH 436 0
DWIDTH 5 0
BBX 4 3 1 2
BITMAP
50
A0
50
ENDCHAR

STARTCHAR char175
ENCODING 175
SWIDTH 436 0
DWIDTH 5 0
BBX 4 3 1 2
BITMAP
A0
50
A0
ENDCHAR

STARTCHAR char176
ENCODING 176
SWIDTH 436 0
DWIDTH 5 0
BBX 5 10 0 -2
BITMAP
90
48
20
90
48
20
90
48
20
90
ENDCHAR

STARTCHAR char177
ENCODING 177
SWIDTH 436 0
DWIDTH 5 0
BBX 5 10 0 -2
BITMAP
50
A8
50
A8
50
A8
50
A8
50
A8
ENDCHAR

STARTCHAR char178
ENCODING 178
SWIDTH 436 0
DWIDTH 5 0
BBX 5 10 0 -2
BITMAP
D8
68
B0
D8
68
B0
D8
68
B0
D8
ENDCHAR

STARTCHAR char179
ENCODING 179
SWIDTH 436 0
DWIDTH 5 0
BBX 1 10 2 -2
BITMAP
80
80
80
80
80
80
80
80
80
80
ENDCHAR

STARTCHAR char180
ENCODING 180
SWIDTH 436 0
DWIDTH 5 0
BBX 3 10 0 -2
BITMAP
20
20
20
20
E0
20
20
20
20
20
ENDCHAR

STARTCHAR char181
ENCODING 181
SWIDTH 436 0
DWIDTH 5 0
BBX 3 10 0 -2
BITMAP
20
20
20
E0
20
E0
20
20
20
20
ENDCHAR

STARTCHAR char182
ENCODING 182
SWIDTH 436 0
DWIDTH 5 0
BBX 4 10 0 -2
BITMAP
50
50
50
50
D0
50
50
50
50
50
ENDCHAR

STARTCHAR char183
ENCODING 183
SWIDTH 436 0
DWIDTH 5 0
BBX 4 6 0 -2
BITMAP
F0
50
50
50
50
50
ENDCHAR

STARTCHAR char184
ENCODING 184
SWIDTH 436 0
DWIDTH 5 0
BBX 3 7 0 -2
BITMAP
E0
20
E0
20
20
20
20
ENDCHAR

STARTCHAR char185
ENCODING 185
SWIDTH 436 0
DWIDTH 5 0
BBX 4 10 0 -2
BITMAP
50
50
50
D0
10
D0
50
50
50
50
ENDCHAR

STARTCHAR char186
ENCODING 186
SWIDTH 436 0
DWIDTH 5 0
BBX 3 10 1 -2
BITMAP
A0
A0
A0
A0
A0
A0
A0
A0
A0
A0
ENDCHAR

STARTCHAR char187
ENCODING 187
SWIDTH 436 0
DWIDTH 5 0
BBX 4 7 0 -2
BITMAP
F0
10
D0
50
50
50
50
ENDCHAR

STARTCHAR char188
ENCODING 188
SWIDTH 436 0
DWIDTH 5 0
BBX 4 6 0 2
BITMAP
50
50
50
D0
10
F0
ENDCHAR

STARTCHAR char189
ENCODING 189
SWIDTH 436 0
DWIDTH 5 0
BBX 4 5 0 3
BITMAP
50
50
50
50
F0
ENDCHAR

STARTCHAR char190
ENCODING 190
SWIDTH 436 0
DWIDTH 5 0
BBX 3 6 0 2
BITMAP
20
20
20
E0
20
E0
ENDCHAR

STARTCHAR char191
ENCODING 191
SWIDTH 436 0
DWIDTH 5 0
BBX 3 6 0 -2
BITMAP
E0
20
20
20
20
20
ENDCHAR

STARTCHAR char192
ENCODING 192
SWIDTH 436 0
DWIDTH 5 0
BBX 3 5 2 3
BITMAP
80
80
80
80
E0
ENDCHAR

STARTCHAR char193
ENCODING 193
SWIDTH 436 0
DWIDTH 5 0
BBX 5 5 0 3
BITMAP
20
20
20
20
F8
ENDCHAR

STARTCHAR char194
ENCODING 194
SWIDTH 436 0
DWIDTH 5 0
BBX 5 6 0 -2
BITMAP
F8
20
20
20
20
20
ENDCHAR

STARTCHAR char195
ENCODING 195
SWIDTH 436 0
DWIDTH 5 0
BBX 3 10 2 -2
BITMAP
80
80
80
80
E0
80
80
80
80
80
ENDCHAR

STARTCHAR char196
ENCODING 196
SWIDTH 436 0
DWIDTH 5 0
BBX 5 1 0 3
BITMAP
F8
ENDCHAR

STARTCHAR char197
ENCODING 197
SWIDTH 436 0
DWIDTH 5 0
BBX 5 10 0 -2
BITMAP
20
20
20
20
F8
20
20
20
20
20
ENDCHAR

STARTCHAR char198
ENCODING 198
SWIDTH 436 0
DWIDTH 5 0
BBX 3 10 2 -2
BITMAP
80
80
80
E0
80
E0
80
80
80
80
ENDCHAR

STARTCHAR char199
ENCODING 199
SWIDTH 436 0
DWIDTH 5 0
BBX 4 10 1 -2
BITMAP
A0
A0
A0
A0
B0
A0
A0
A0
A0
A0
ENDCHAR

STARTCHAR char200
ENCODING 200
SWIDTH 436 0
DWIDTH 5 0
BBX 4 6 1 2
BITMAP
A0
A0
A0
B0
80
F0
ENDCHAR

STARTCHAR char201
ENCODING 201
SWIDTH 436 0
DWIDTH 5 0
BBX 4 7 1 -2
BITMAP
F0
80
B0
A0
A0
A0
A0
ENDCHAR

STARTCHAR char202
ENCODING 202
SWIDTH 436 0
DWIDTH 5 0
BBX 5 6 0 2
BITMAP
50
50
50
D8
00
F8
ENDCHAR

STARTCHAR char203
ENCODING 203
SWIDTH 436 0
DWIDTH 5 0
BBX 5 7 0 -2
BITMAP
F8
00
D8
50
50
50
50
ENDCHAR

STARTCHAR char204
ENCODING 204
SWIDTH 436 0
DWIDTH 5 0
BBX 4 10 1 -2
BITMAP
A0
A0
A0
B0
80
B0
A0
A0
A0
A0
ENDCHAR

STARTCHAR char205
ENCODING 205
SWIDTH 436 0
DWIDTH 5 0
BBX 5 3 0 2
BITMAP
F8
00
F8
ENDCHAR

STARTCHAR char206
ENCODING 206
SWIDTH 436 0
DWIDTH 5 0
BBX 5 10 0 -2
BITMAP
50
50
50
D8
00
D8
50
50
50
50
ENDCHAR

STARTCHAR char207
ENCODING 207
SWIDTH 436 0
DWIDTH 5 0
BBX 5 6 0 2
BITMAP
20
20
20
F8
00
F8
ENDCHAR

STARTCHAR char208
ENCODING 208
SWIDTH 436 0
DWIDTH 5 0
BBX 5 5 0 3
BITMAP
50
50
50
50
F8
ENDCHAR

STARTCHAR char209
ENCODING 209
SWIDTH 436 0
DWIDTH 5 0
BBX 5 7 0 -2
BITMAP
F8
00
F8
20
20
20
20
ENDCHAR

STARTCHAR char210
ENCODING 210
SWIDTH 436 0
DWIDTH 5 0
BBX 5 6 0 -2
BITMAP
F8
50
50
50
50
50
ENDCHAR

STARTCHAR char211
ENCODING 211
SWIDTH 436 0
DWIDTH 5 0
BBX 4 5 1 3
BITMAP
A0
A0
A0
A0
F0
ENDCHAR

STARTCHAR char212
ENCODING 212
SWIDTH 436 0
DWIDTH 5 0
BBX 3 6 2 2
BITMAP
80
80
80
E0
80
E0
ENDCHAR

STARTCHAR char213
ENCODING 213
SWIDTH 436 0
DWIDTH 5 0
BBX 3 7 2 -2
BITMAP
E0
80
E0
80
80
80
80
ENDCHAR

STARTCHAR char214
ENCODING 214
SWIDTH 436 0
DWIDTH 5 0
BBX 4 6 1 -2
BITMAP
F0
A0
A0
A0
A0
A0
ENDCHAR

STARTCHAR char215
ENCODING 215
SWIDTH 436 0
DWIDTH 5 0
BBX 5 10 0 -2
BITMAP
50
50
50
50
F8
50
50
50
50
50
ENDCHAR

STARTCHAR char216
ENCODING 216
SWIDTH 436 0
DWIDTH 5 0
BBX 5 10 0 -2
BITMAP
20
20
20
F8
20
F8
20
20
20
20
ENDCHAR

STARTCHAR char217
ENCODING 217
SWIDTH 436 0
DWIDTH 5 0
BBX 3 5 0 3
BITMAP
20
20
20
20
E0
ENDCHAR

STARTCHAR char218
ENCODING 218
SWIDTH 436 0
DWIDTH 5 0
BBX 3 6 2 -2
BITMAP
E0
80
80
80
80
80
ENDCHAR

STARTCHAR char219
ENCODING 219
SWIDTH 436 0
DWIDTH 5 0
BBX 5 10 0 -2
BITMAP
F8
F8
F8
F8
F8
F8
F8
F8
F8
F8
ENDCHAR

STARTCHAR char220
ENCODING 220
SWIDTH 436 0
DWIDTH 5 0
BBX 5 6 0 -2
BITMAP
F8
F8
F8
F8
F8
F8
ENDCHAR

STARTCHAR char221
ENCODING 221
SWIDTH 436 0
DWIDTH 5 0
BBX 3 10 0 -2
BITMAP
E0
E0
E0
E0
E0
E0
E0
E0
E0
E0
ENDCHAR

STARTCHAR char222
ENCODING 222
SWIDTH 436 0
DWIDTH 5 0
BBX 2 10 3 -2
BITMAP
C0
C0
C0
C0
C0
C0
C0
C0
C0
C0
ENDCHAR

STARTCHAR char223
ENCODING 223
SWIDTH 436 0
DWIDTH 5 0
BBX 5 5 0 3
BITMAP
F8
F8
F8
F8
F8
ENDCHAR

STARTCHAR char224
ENCODING 224
SWIDTH 436 0
DWIDTH 5 0
BBX 4 5 1 0
BITMAP
50
A0
A0
A0
50
ENDCHAR

STARTCHAR char225
ENCODING 225
SWIDTH 436 0
DWIDTH 5 0
BBX 4 7 1 0
BITMAP
60
90
A0
90
A0
80
80
ENDCHAR

STARTCHAR char226
ENCODING 226
SWIDTH 436 0
DWIDTH 5 0
BBX 4 7 1 0
BITMAP
F0
90
80
80
80
80
80
ENDCHAR

STARTCHAR char227
ENCODING 227
SWIDTH 436 0
DWIDTH 5 0
BBX 5 5 0 1
BITMAP
F8
50
50
50
50
ENDCHAR

STARTCHAR char228
ENCODING 228
SWIDTH 436 0
DWIDTH 5 0
BBX 4 7 1 0
BITMAP
F0
80
40
20
40
80
F0
ENDCHAR

STARTCHAR char229
ENCODING 229
SWIDTH 436 0
DWIDTH 5 0
BBX 4 5 1 0
BITMAP
70
A0
A0
A0
40
ENDCHAR

STARTCHAR char230
ENCODING 230
SWIDTH 436 0
DWIDTH 5 0
BBX 4 7 1 0
BITMAP
50
50
50
50
60
40
80
ENDCHAR

STARTCHAR char231
ENCODING 231
SWIDTH 436 0
DWIDTH 5 0
BBX 4 6 1 0
BITMAP
50
A0
20
20
20
20
ENDCHAR

STARTCHAR char232
ENCODING 232
SWIDTH 436 0
DWIDTH 5 0
BBX 5 8 0 0
BITMAP
F8
20
70
88
88
70
20
F8
ENDCHAR

STARTCHAR char233
ENCODING 233
SWIDTH 436 0
DWIDTH 5 0
BBX 4 7 1 0
BITMAP
60
90
90
F0
90
90
60
ENDCHAR

STARTCHAR char234
ENCODING 234
SWIDTH 436 0
DWIDTH 5 0
BBX 5 6 0 0
BITMAP
70
88
88
50
50
D8
ENDCHAR

STARTCHAR char235
ENCODING 235
SWIDTH 436 0
DWIDTH 5 0
BBX 4 7 1 0
BITMAP
60
80
40
60
90
90
60
ENDCHAR

STARTCHAR char236
ENCODING 236
SWIDTH 436 0
DWIDTH 5 0
BBX 5 5 0 0
BITMAP
70
A8
A8
A8
70
ENDCHAR

STARTCHAR char237
ENCODING 237
SWIDTH 436 0
DWIDTH 5 0
BBX 5 9 0 -1
BITMAP
08
08
70
B8
A8
E8
70
80
80
ENDCHAR

STARTCHAR char238
ENCODING 238
SWIDTH 436 0
DWIDTH 5 0
BBX 4 7 1 0
BITMAP
30
40
80
F0
80
40
30
ENDCHAR

STARTCHAR char239
ENCODING 239
SWIDTH 436 0
DWIDTH 5 0
BBX 4 7 1 0
BITMAP
60
90
90
90
90
90
90
ENDCHAR

STARTCHAR char240
ENCODING 240
SWIDTH 436 0
DWIDTH 5 0
BBX 4 5 1 1
BITMAP
F0
00
F0
00
F0
ENDCHAR

STARTCHAR char241
ENCODING 241
SWIDTH 436 0
DWIDTH 5 0
BBX 3 5 1 1
BITMAP
40
E0
40
00
E0
ENDCHAR

STARTCHAR char242
ENCODING 242
SWIDTH 436 0
DWIDTH 5 0
BBX 3 7 2 0
BITMAP
80
40
20
40
80
00
E0
ENDCHAR

STARTCHAR char243
ENCODING 243
SWIDTH 436 0
DWIDTH 5 0
BBX 3 7 2 0
BITMAP
20
40
80
40
20
00
E0
ENDCHAR

STARTCHAR char244
ENCODING 244
SWIDTH 436 0
DWIDTH 5 0
BBX 3 8 1 0
BITMAP
40
A0
A0
80
80
80
80
80
ENDCHAR

STARTCHAR char245
ENCODING 245
SWIDTH 436 0
DWIDTH 5 0
BBX 3 8 1 0
BITMAP
80
80
80
80
80
A0
A0
40
ENDCHAR

STARTCHAR char246
ENCODING 246
SWIDTH 436 0
DWIDTH 5 0
BBX 5 7 0 0
BITMAP
20
20
00
F8
00
20
20
ENDCHAR

STARTCHAR char247
ENCODING 247
SWIDTH 436 0
DWIDTH 5 0
BBX 4 5 1 1
BITMAP
50
A0
00
50
A0
ENDCHAR

STARTCHAR char249
ENCODING 249
SWIDTH 436 0
DWIDTH 5 0
BBX 2 2 2 1
BITMAP
C0
C0
ENDCHAR

STARTCHAR char250
ENCODING 250
SWIDTH 436 0
DWIDTH 5 0
BBX 2 1 2 1
BITMAP
C0
ENDCHAR

STARTCHAR char251
ENCODING 251
SWIDTH 436 0
DWIDTH 5 0
BBX 5 7 0 0
BITMAP
38
20
20
20
A0
60
20
ENDCHAR

STARTCHAR char252
ENCODING 252
SWIDTH 436 0
DWIDTH 5 0
BBX 4 4 1 3
BITMAP
A0
D0
90
90
ENDCHAR

STARTCHAR char253
ENCODING 253
SWIDTH 436 0
DWIDTH 5 0
BBX 3 4 1 3
BITMAP
C0
20
40
E0
ENDCHAR

STARTCHAR char254
ENCODING 254
SWIDTH 436 0
DWIDTH 5 0
BBX 3 4 1 1
BITMAP
E0
E0
E0
E0
ENDCHAR

STARTCHAR char255
ENCODING 255
SWIDTH 436 0
DWIDTH 5 0
BBX 3 3 1 2
BITMAP
E0
E0
E0
ENDCHAR

STARTCHAR char7461
ENCODING 7461
SWIDTH 436 0
DWIDTH 5 0
BBX 5 6 1 0
BITMAP
70
70
70
70
20
D8
ENDCHAR

STARTCHAR char8216
ENCODING 8216
SWIDTH 436 0
DWIDTH 5 0
BBX 1 3 2 4
BITMAP
80
80
80
ENDCHAR

STARTCHAR char8217
ENCODING 8217
SWIDTH 436 0
DWIDTH 5 0
BBX 1 3 2 4
BITMAP
80
80
80
ENDCHAR

STARTCHAR char8218
ENCODING 8218
SWIDTH 436 0
DWIDTH 5 0
BBX 4 3 0 -1
BITMAP
10
10
20
ENDCHAR

STARTCHAR char8220
ENCODING 8220
SWIDTH 436 0
DWIDTH 5 0
BBX 4 3 1 3
BITMAP
50
A0
F0
ENDCHAR

STARTCHAR char8221
ENCODING 8221
SWIDTH 436 0
DWIDTH 5 0
BBX 4 3 1 3
BITMAP
F0
50
A0
ENDCHAR

STARTCHAR char8222
ENCODING 8222
SWIDTH 436 0
DWIDTH 5 0
BBX 4 3 1 -1
BITMAP
F0
50
A0
ENDCHAR

STARTCHAR char8223
ENCODING 8223
SWIDTH 436 0
DWIDTH 5 0
BBX 4 3 1 3
BITMAP
F0
A0
50
ENDCHAR

STARTCHAR char183
ENCODING 8226
SWIDTH 436 0
DWIDTH 5 0
BBX 2 2 2 2
BITMAP
C0
C0
ENDCHAR

STARTCHAR char8228
ENCODING 8228
SWIDTH 436 0
DWIDTH 5 0
BBX 1 1 2 0
BITMAP
80
ENDCHAR

STARTCHAR char8229
ENCODING 8229
SWIDTH 436 0
DWIDTH 5 0
BBX 4 1 0 0
BITMAP
50
ENDCHAR

STARTCHAR char8230
ENCODING 8230
SWIDTH 436 0
DWIDTH 5 0
BBX 5 1 0 0
BITMAP
A8
ENDCHAR

STARTCHAR char8231
ENCODING 8231
SWIDTH 436 0
DWIDTH 5 0
BBX 1 1 2 2
BITMAP
80
ENDCHAR

STARTCHAR UNDERTIE
ENCODING 8255
SWIDTH 436 0
DWIDTH 5 0
BBX 5 2 0 0
BITMAP
88
70
ENDCHAR

STARTCHAR char8482
ENCODING 8482
SWIDTH 436 0
DWIDTH 5 0
BBX 6 3 0 3
BITMAP
F4
5C
54
ENDCHAR

STARTCHAR char8592
ENCODING 8592
SWIDTH 436 0
DWIDTH 5 0
BBX 6 5 0 0
BITMAP
20
60
FC
60
20
ENDCHAR

STARTCHAR char8593
ENCODING 8593
SWIDTH 436 0
DWIDTH 5 0
BBX 5 6 0 0
BITMAP
20
70
F8
20
20
20
ENDCHAR

STARTCHAR char8594
ENCODING 8594
SWIDTH 436 0
DWIDTH 5 0
BBX 6 5 0 0
BITMAP
10
18
FC
18
10
ENDCHAR

STARTCHAR char8595
ENCODING 8595
SWIDTH 436 0
DWIDTH 5 0
BBX 5 6 0 0
BITMAP
20
20
20
F8
70
20
ENDCHAR

STARTCHAR char8596
ENCODING 8596
SWIDTH 436 0
DWIDTH 5 0
BBX 6 3 0 1
BITMAP
48
FC
48
ENDCHAR

STARTCHAR char8597
ENCODING 8597
SWIDTH 436 0
DWIDTH 5 0
BBX 5 8 0 -1
BITMAP
20
70
F8
20
20
F8
70
20
ENDCHAR

STARTCHAR char8598
ENCODING 8598
SWIDTH 436 0
DWIDTH 5 0
BBX 4 4 0 1
BITMAP
E0
C0
A0
10
ENDCHAR

STARTCHAR char8599
ENCODING 8599
SWIDTH 436 0
DWIDTH 5 0
BBX 4 4 1 1
BITMAP
70
30
50
80
ENDCHAR

STARTCHAR char8600
ENCODING 8600
SWIDTH 436 0
DWIDTH 5 0
BBX 4 4 1 0
BITMAP
80
50
30
70
ENDCHAR

STARTCHAR char8601
ENCODING 8601
SWIDTH 436 0
DWIDTH 5 0
BBX 4 4 0 0
BITMAP
10
A0
C0
E0
ENDCHAR

STARTCHAR char8624
ENCODING 8624
SWIDTH 436 0
DWIDTH 5 0
BBX 4 5 0 0
BITMAP
40
F0
50
10
10
ENDCHAR

STARTCHAR char8625
ENCODING 8625
SWIDTH 436 0
DWIDTH 5 0
BBX 4 5 0 0
BITMAP
20
F0
A0
80
80
ENDCHAR

STARTCHAR char8626
ENCODING 8626
SWIDTH 436 0
DWIDTH 5 0
BBX 4 5 0 -1
BITMAP
10
10
50
F0
40
ENDCHAR

STARTCHAR char8627
ENCODING 8627
SWIDTH 436 0
DWIDTH 5 0
BBX 4 5 0 -1
BITMAP
80
80
A0
F0
20
ENDCHAR

STARTCHAR char8628
ENCODING 8628
SWIDTH 436 0
DWIDTH 5 0
BBX 4 4 0 -1
BITMAP
E0
20
70
20
ENDCHAR

STARTCHAR char8629
ENCODING 8629
SWIDTH 436 0
DWIDTH 5 0
BBX 4 5 0 -1
BITMAP
10
10
50
F0
40
ENDCHAR

STARTCHAR char8630
ENCODING 8630
SWIDTH 436 0
DWIDTH 5 0
BBX 4 5 0 0
BITMAP
20
50
40
E0
40
ENDCHAR

STARTCHAR char8631
ENCODING 8631
SWIDTH 436 0
DWIDTH 5 0
BBX 4 5 1 0
BITMAP
40
A0
20
70
20
ENDCHAR

STARTCHAR char8689
ENCODING 8689
SWIDTH 436 0
DWIDTH 5 0
BBX 6 6 0 0
BITMAP
F8
80
B8
B0
A8
04
ENDCHAR

STARTCHAR char8690
ENCODING 8690
SWIDTH 436 0
DWIDTH 5 0
BBX 6 6 1 -1
BITMAP
80
54
34
74
04
7C
ENDCHAR

STARTCHAR char8693
ENCODING 8693
SWIDTH 436 0
DWIDTH 5 0
BBX 6 6 0 0
BITMAP
48
E8
48
48
5C
48
ENDCHAR

STARTCHAR char8694
ENCODING 8694
SWIDTH 436 0
DWIDTH 5 0
BBX 5 7 1 -1
BITMAP
10
F8
10
F8
10
F8
10
ENDCHAR

STARTCHAR char8695
ENCODING 8695
SWIDTH 436 0
DWIDTH 5 0
BBX 6 3 0 0
BITMAP
50
FC
50
ENDCHAR

STARTCHAR char8696
ENCODING 8696
SWIDTH 436 0
DWIDTH 5 0
BBX 6 3 0 0
BITMAP
28
FC
28
ENDCHAR

STARTCHAR char8701
ENCODING 8701
SWIDTH 436 0
DWIDTH 5 0
BBX 6 3 0 1
BITMAP
40
BC
40
ENDCHAR

STARTCHAR char8702
ENCODING 8702
SWIDTH 436 0
DWIDTH 5 0
BBX 6 3 0 1
BITMAP
08
F4
08
ENDCHAR

STARTCHAR char8703
ENCODING 8703
SWIDTH 436 0
DWIDTH 5 0
BBX 6 3 0 1
BITMAP
48
B4
48
ENDCHAR

STARTCHAR QUADRANT
ENCODING 9622
SWIDTH 436 0
DWIDTH 5 0
BBX 3 3 0 0
BITMAP
E0
E0
E0
ENDCHAR

STARTCHAR QUADRANT
ENCODING 9623
SWIDTH 436 0
DWIDTH 5 0
BBX 3 3 3 0
BITMAP
E0
E0
E0
ENDCHAR

STARTCHAR QUADRANT
ENCODING 9624
SWIDTH 436 0
DWIDTH 5 0
BBX 3 3 0 3
BITMAP
E0
E0
E0
ENDCHAR

STARTCHAR QUADRANT
ENCODING 9625
SWIDTH 436 0
DWIDTH 5 0
BBX 6 6 0 0
BITMAP
E0
E0
E0
FC
FC
FC
ENDCHAR

STARTCHAR QUADRANT
ENCODING 9626
SWIDTH 436 0
DWIDTH 5 0
BBX 6 6 0 0
BITMAP
E0
E0
E0
1C
1C
1C
ENDCHAR

STARTCHAR QUADRANT
ENCODING 9627
SWIDTH 436 0
DWIDTH 5 0
BBX 6 6 0 0
BITMAP
FC
FC
FC
E0
E0
E0
ENDCHAR

STARTCHAR QUADRANT
ENCODING 9628
SWIDTH 436 0
DWIDTH 5 0
BBX 6 6 0 0
BITMAP
FC
FC
FC
1C
1C
1C
ENDCHAR

STARTCHAR QUADRANT
ENCODING 9629
SWIDTH 436 0
DWIDTH 5 0
BBX 3 3 3 3
BITMAP
E0
E0
E0
ENDCHAR

STARTCHAR QUADRANT
ENCODING 9630
SWIDTH 436 0
DWIDTH 5 0
BBX 6 6 0 0
BITMAP
1C
1C
1C
E0
E0
E0
ENDCHAR

STARTCHAR QUADRANT
ENCODING 9631
SWIDTH 436 0
DWIDTH 5 0
BBX 6 6 0 0
BITMAP
1C
1C
1C
FC
FC
FC
ENDCHAR

STARTCHAR BLACK
ENCODING 9632
SWIDTH 436 0
DWIDTH 5 0
BBX 6 6 0 0
BITMAP
FC
FC
FC
FC
FC
FC
ENDCHAR

STARTCHAR WHITE
ENCODING 9633
SWIDTH 436 0
DWIDTH 5 0
BBX 6 6 0 0
BITMAP
FC
84
84
84
84
FC
ENDCHAR

STARTCHAR WHITE
ENCODING 9634
SWIDTH 436 0
DWIDTH 5 0
BBX 6 6 0 0
BITMAP
78
84
84
84
84
78
ENDCHAR

STARTCHAR WHITE
ENCODING 9635
SWIDTH 436 0
DWIDTH 5 0
BBX 5 5 0 0
BITMAP
F8
88
A8
88
F8
ENDCHAR

STARTCHAR SQUARE
ENCODING 9636
SWIDTH 436 0
DWIDTH 5 0
BBX 5 5 0 0
BITMAP
F8
88
F8
88
F8
ENDCHAR

STARTCHAR SQUARE
ENCODING 9637
SWIDTH 436 0
DWIDTH 5 0
BBX 5 5 0 0
BITMAP
F8
A8
A8
A8
F8
ENDCHAR

STARTCHAR SQUARE
ENCODING 9638
SWIDTH 436 0
DWIDTH 5 0
BBX 5 5 0 0
BITMAP
F8
A8
F8
A8
F8
ENDCHAR

STARTCHAR SQUARE
ENCODING 9639
SWIDTH 436 0
DWIDTH 5 0
BBX 5 5 0 0
BITMAP
F8
C8
A8
98
F8
ENDCHAR

STARTCHAR SQUARE
ENCODING 9640
SWIDTH 436 0
DWIDTH 5 0
BBX 5 5 0 0
BITMAP
F8
98
A8
C8
F8
ENDCHAR

STARTCHAR SQUARE
ENCODING 9641
SWIDTH 436 0
DWIDTH 5 0
BBX 5 5 0 0
BITMAP
F8
A8
D8
A8
F8
ENDCHAR

STARTCHAR BLACK
ENCODING 9642
SWIDTH 436 0
DWIDTH 5 0
BBX 5 5 0 0
BITMAP
F8
F8
F8
F8
F8
ENDCHAR

STARTCHAR WHITE
ENCODING 9643
SWIDTH 436 0
DWIDTH 5 0
BBX 5 5 0 0
BITMAP
F8
88
88
88
F8
ENDCHAR

STARTCHAR BLACK
ENCODING 9644
SWIDTH 436 0
DWIDTH 5 0
BBX 5 3 0 0
BITMAP
F8
F8
F8
ENDCHAR

STARTCHAR WHITE
ENCODING 9645
SWIDTH 436 0
DWIDTH 5 0
BBX 5 3 0 0
BITMAP
F8
88
F8
ENDCHAR

STARTCHAR BLACK
ENCODING 9646
SWIDTH 436 0
DWIDTH 5 0
BBX 4 7 0 0
BITMAP
F0
F0
F0
F0
F0
F0
F0
ENDCHAR

STARTCHAR WHITE
ENCODING 9647
SWIDTH 436 0
DWIDTH 5 0
BBX 4 7 0 0
BITMAP
F0
90
90
90
90
90
F0
ENDCHAR

STARTCHAR BLACK
ENCODING 9648
SWIDTH 436 0
DWIDTH 5 0
BBX 6 3 0 0
BITMAP
7C
FC
F8
ENDCHAR

STARTCHAR WHITE
ENCODING 9649
SWIDTH 436 0
DWIDTH 5 0
BBX 6 3 0 0
BITMAP
7C
84
F8
ENDCHAR

STARTCHAR char11155
ENCODING 9650
SWIDTH 436 0
DWIDTH 5 0
BBX 7 4 1 1
BITMAP
10
38
7C
FE
ENDCHAR

STARTCHAR char11155
ENCODING 9651
SWIDTH 436 0
DWIDTH 5 0
BBX 7 4 1 1
BITMAP
10
28
44
FE
ENDCHAR

STARTCHAR char11155
ENCODING 9652
SWIDTH 436 0
DWIDTH 5 0
BBX 5 3 0 1
BITMAP
20
70
F8
ENDCHAR

STARTCHAR char11155
ENCODING 9653
SWIDTH 436 0
DWIDTH 5 0
BBX 5 3 0 1
BITMAP
20
50
F8
ENDCHAR

STARTCHAR char11155
ENCODING 9654
SWIDTH 436 0
DWIDTH 5 0
BBX 4 7 1 -1
BITMAP
80
C0
E0
F0
E0
C0
80
ENDCHAR

STARTCHAR char11155
ENCODING 9655
SWIDTH 436 0
DWIDTH 5 0
BBX 4 7 1 -1
BITMAP
80
C0
A0
90
A0
C0
80
ENDCHAR

STARTCHAR char11155
ENCODING 9656
SWIDTH 436 0
DWIDTH 5 0
BBX 3 5 1 0
BITMAP
80
C0
E0
C0
80
ENDCHAR

STARTCHAR char11155
ENCODING 9657
SWIDTH 436 0
DWIDTH 5 0
BBX 3 5 1 0
BITMAP
80
C0
A0
C0
80
ENDCHAR

STARTCHAR BLACK
ENCODING 9658
SWIDTH 436 0
DWIDTH 5 0
BBX 7 5 -1 0
BITMAP
C0
F8
FE
F8
C0
ENDCHAR

STARTCHAR WHITE
ENCODING 9659
SWIDTH 436 0
DWIDTH 5 0
BBX 7 5 -1 0
BITMAP
C0
B8
86
B8
C0
ENDCHAR

STARTCHAR char11155
ENCODING 9660
SWIDTH 436 0
DWIDTH 5 0
BBX 7 4 1 1
BITMAP
FE
7C
38
10
ENDCHAR

STARTCHAR char11155
ENCODING 9661
SWIDTH 436 0
DWIDTH 5 0
BBX 7 4 1 1
BITMAP
FE
44
28
10
ENDCHAR

STARTCHAR char11155
ENCODING 9662
SWIDTH 436 0
DWIDTH 5 0
BBX 5 3 0 1
BITMAP
F8
70
20
ENDCHAR

STARTCHAR char11155
ENCODING 9663
SWIDTH 436 0
DWIDTH 5 0
BBX 5 3 0 1
BITMAP
F8
50
20
ENDCHAR

STARTCHAR char11155
ENCODING 9664
SWIDTH 436 0
DWIDTH 5 0
BBX 4 7 1 -1
BITMAP
10
30
70
F0
70
30
10
ENDCHAR

STARTCHAR char11155
ENCODING 9665
SWIDTH 436 0
DWIDTH 5 0
BBX 4 7 1 -1
BITMAP
10
30
50
90
50
30
10
ENDCHAR

STARTCHAR char11155
ENCODING 9666
SWIDTH 436 0
DWIDTH 5 0
BBX 3 5 1 0
BITMAP
20
60
E0
60
20
ENDCHAR

STARTCHAR char11155
ENCODING 9667
SWIDTH 436 0
DWIDTH 5 0
BBX 3 5 1 0
BITMAP
20
60
A0
60
20
ENDCHAR

STARTCHAR BLACK
ENCODING 9668
SWIDTH 436 0
DWIDTH 5 0
BBX 7 5 -1 0
BITMAP
06
3E
FE
3E
06
ENDCHAR

STARTCHAR WHITE
ENCODING 9669
SWIDTH 436 0
DWIDTH 5 0
BBX 7 5 -1 0
BITMAP
06
3A
C2
3A
06
ENDCHAR

STARTCHAR BLACK
ENCODING 9670
SWIDTH 436 0
DWIDTH 5 0
BBX 5 5 0 1
BITMAP
20
70
F8
70
20
ENDCHAR

STARTCHAR WHITE
ENCODING 9671
SWIDTH 436 0
DWIDTH 5 0
BBX 5 5 0 1
BITMAP
20
50
88
50
20
ENDCHAR

STARTCHAR WHITE
ENCODING 9672
SWIDTH 436 0
DWIDTH 5 0
BBX 5 5 0 1
BITMAP
20
50
A8
50
20
ENDCHAR

STARTCHAR FISHEYE
ENCODING 9673
SWIDTH 436 0
DWIDTH 5 0
BBX 5 5 0 1
BITMAP
70
88
A8
88
70
ENDCHAR

STARTCHAR LOZENGE
ENCODING 9674
SWIDTH 436 0
DWIDTH 5 0
BBX 5 7 0 0
BITMAP
20
50
50
88
50
50
20
ENDCHAR

STARTCHAR WHITE
ENCODING 9675
SWIDTH 436 0
DWIDTH 5 0
BBX 5 5 0 1
BITMAP
70
88
88
88
70
ENDCHAR

STARTCHAR DOTTED
ENCODING 9676
SWIDTH 436 0
DWIDTH 5 0
BBX 5 5 0 1
BITMAP
50
88
00
88
50
ENDCHAR

STARTCHAR CIRCLE
ENCODING 9677
SWIDTH 436 0
DWIDTH 5 0
BBX 5 5 0 1
BITMAP
70
A8
A8
A8
70
ENDCHAR

STARTCHAR BULLSEYE
ENCODING 9678
SWIDTH 436 0
DWIDTH 5 0
BBX 5 5 0 1
BITMAP
70
88
A8
88
70
ENDCHAR

STARTCHAR BLACK
ENCODING 9679
SWIDTH 436 0
DWIDTH 5 0
BBX 5 5 0 1
BITMAP
70
F8
F8
F8
70
ENDCHAR

STARTCHAR CIRCLE
ENCODING 9680
SWIDTH 436 0
DWIDTH 5 0
BBX 4 4 1 2
BITMAP
60
D0
D0
60
ENDCHAR

STARTCHAR CIRCLE
ENCODING 9681
SWIDTH 436 0
DWIDTH 5 0
BBX 4 4 1 2
BITMAP
60
B0
B0
60
ENDCHAR

STARTCHAR CIRCLE
ENCODING 9682
SWIDTH 436 0
DWIDTH 5 0
BBX 4 4 1 2
BITMAP
60
F0
90
60
ENDCHAR

STARTCHAR CIRCLE
ENCODING 9683
SWIDTH 436 0
DWIDTH 5 0
BBX 4 4 1 2
BITMAP
60
90
F0
60
ENDCHAR

STARTCHAR CIRCLE
ENCODING 9684
SWIDTH 436 0
DWIDTH 5 0
BBX 4 4 1 2
BITMAP
60
B0
90
60
ENDCHAR

STARTCHAR CIRCLE
ENCODING 9685
SWIDTH 436 0
DWIDTH 5 0
BBX 4 4 1 2
BITMAP
60
B0
F0
60
ENDCHAR

STARTCHAR LEFT
ENCODING 9686
SWIDTH 436 0
DWIDTH 5 0
BBX 2 4 1 2
BITMAP
40
C0
C0
40
ENDCHAR

STARTCHAR RIGHT
ENCODING 9687
SWIDTH 436 0
DWIDTH 5 0
BBX 2 4 3 2
BITMAP
80
C0
C0
80
ENDCHAR

STARTCHAR INVERSE
ENCODING 9688
SWIDTH 436 0
DWIDTH 5 0
BBX 6 11 0 -2
BITMAP
FC
FC
FC
FC
CC
84
84
CC
FC
FC
FC
ENDCHAR

STARTCHAR INVERSE
ENCODING 9689
SWIDTH 436 0
DWIDTH 5 0
BBX 7 7 -1 0
BITMAP
FE
C6
BA
BA
BA
C6
FE
ENDCHAR

STARTCHAR UPPER
ENCODING 9690
SWIDTH 436 0
DWIDTH 5 0
BBX 7 4 -1 3
BITMAP
FE
C6
BA
BA
ENDCHAR

STARTCHAR LOWER
ENCODING 9691
SWIDTH 436 0
DWIDTH 5 0
BBX 7 4 -1 0
BITMAP
BA
BA
C6
FE
ENDCHAR

STARTCHAR UPPER
ENCODING 9692
SWIDTH 436 0
DWIDTH 5 0
BBX 3 3 0 3
BITMAP
60
80
80
ENDCHAR

STARTCHAR UPPER
ENCODING 9693
SWIDTH 436 0
DWIDTH 5 0
BBX 3 3 2 3
BITMAP
C0
20
20
ENDCHAR

STARTCHAR LOWER
ENCODING 9694
SWIDTH 436 0
DWIDTH 5 0
BBX 3 3 2 1
BITMAP
20
20
C0
ENDCHAR

STARTCHAR LOWER
ENCODING 9695
SWIDTH 436 0
DWIDTH 5 0
BBX 3 3 0 1
BITMAP
80
80
60
ENDCHAR

STARTCHAR UPPER
ENCODING 9696
SWIDTH 436 0
DWIDTH 5 0
BBX 5 3 0 3
BITMAP
70
88
88
ENDCHAR

STARTCHAR LOWER
ENCODING 9697
SWIDTH 436 0
DWIDTH 5 0
BBX 6 3 0 1
BITMAP
84
44
38
ENDCHAR

STARTCHAR BLACK
ENCODING 9698
SWIDTH 436 0
DWIDTH 5 0
BBX 6 6 0 0
BITMAP
04
0C
1C
3C
7C
FC
ENDCHAR

STARTCHAR BLACK
ENCODING 9699
SWIDTH 436 0
DWIDTH 5 0
BBX 6 6 0 0
BITMAP
80
C0
E0
F0
F8
FC
ENDCHAR

STARTCHAR BLACK
ENCODING 9700
SWIDTH 436 0
DWIDTH 5 0
BBX 6 6 0 0
BITMAP
FC
F8
F0
E0
C0
80
ENDCHAR

STARTCHAR BLACK
ENCODING 9701
SWIDTH 436 0
DWIDTH 5 0
BBX 6 6 0 0
BITMAP
FC
7C
3C
1C
0C
04
ENDCHAR

STARTCHAR WHITE
ENCODING 9702
SWIDTH 436 0
DWIDTH 5 0
BBX 5 5 0 1
BITMAP
70
88
88
88
70
ENDCHAR

STARTCHAR SQUARE
ENCODING 9703
SWIDTH 436 0
DWIDTH 5 0
BBX 5 5 0 0
BITMAP
F8
C8
C8
C8
F8
ENDCHAR

STARTCHAR SQUARE
ENCODING 9704
SWIDTH 436 0
DWIDTH 5 0
BBX 5 5 0 0
BITMAP
F8
98
98
98
F8
ENDCHAR

STARTCHAR SQUARE
ENCODING 9705
SWIDTH 436 0
DWIDTH 5 0
BBX 5 5 0 0
BITMAP
F8
E8
C8
88
F8
ENDCHAR

STARTCHAR SQUARE
ENCODING 9706
SWIDTH 436 0
DWIDTH 5 0
BBX 5 5 0 0
BITMAP
F8
88
98
B8
F8
ENDCHAR

STARTCHAR WHITE
ENCODING 9707
SWIDTH 436 0
DWIDTH 5 0
BBX 5 5 0 0
BITMAP
F8
A8
A8
A8
F8
ENDCHAR

STARTCHAR WHITE
ENCODING 9708
SWIDTH 436 0
DWIDTH 5 0
BBX 5 7 0 0
BITMAP
20
20
50
50
A8
88
F8
ENDCHAR

STARTCHAR UP-POINTING
ENCODING 9709
SWIDTH 436 0
DWIDTH 5 0
BBX 5 6 0 0
BITMAP
20
20
70
70
E8
F8
ENDCHAR

STARTCHAR UP-POINTING
ENCODING 9710
SWIDTH 436 0
DWIDTH 5 0
BBX 5 6 0 0
BITMAP
20
20
70
70
B8
F8
ENDCHAR

STARTCHAR LARGE
ENCODING 9711
SWIDTH 436 0
DWIDTH 5 0
BBX 5 5 0 0
BITMAP
70
88
88
88
70
ENDCHAR

STARTCHAR WHITE
ENCODING 9712
SWIDTH 436 0
DWIDTH 5 0
BBX 5 5 0 0
BITMAP
F8
A8
E8
88
F8
ENDCHAR

STARTCHAR WHITE
ENCODING 9713
SWIDTH 436 0
DWIDTH 5 0
BBX 5 5 0 0
BITMAP
F8
88
E8
A8
F8
ENDCHAR

STARTCHAR WHITE
ENCODING 9714
SWIDTH 436 0
DWIDTH 5 0
BBX 5 5 0 0
BITMAP
F8
88
B8
A8
F8
ENDCHAR

STARTCHAR WHITE
ENCODING 9715
SWIDTH 436 0
DWIDTH 5 0
BBX 5 5 0 0
BITMAP
F8
A8
B8
88
F8
ENDCHAR

STARTCHAR WHITE
ENCODING 9716
SWIDTH 436 0
DWIDTH 5 0
BBX 5 5 0 0
BITMAP
70
A8
E8
88
70
ENDCHAR

STARTCHAR WHITE
ENCODING 9717
SWIDTH 436 0
DWIDTH 5 0
BBX 5 5 0 0
BITMAP
70
88
E8
A8
70
ENDCHAR

STARTCHAR WHITE
ENCODING 9718
SWIDTH 436 0
DWIDTH 5 0
BBX 5 5 0 0
BITMAP
70
88
B8
A8
70
ENDCHAR

STARTCHAR WHITE
ENCODING 9719
SWIDTH 436 0
DWIDTH 5 0
BBX 5 5 0 0
BITMAP
70
A8
B8
88
70
ENDCHAR

STARTCHAR UPPER
ENCODING 9720
SWIDTH 436 0
DWIDTH 5 0
BBX 4 4 0 3
BITMAP
F0
A0
C0
80
ENDCHAR

STARTCHAR UPPER
ENCODING 9721
SWIDTH 436 0
DWIDTH 5 0
BBX 4 4 2 3
BITMAP
F0
50
30
10
ENDCHAR

STARTCHAR LOWER
ENCODING 9722
SWIDTH 436 0
DWIDTH 5 0
BBX 4 4 0 0
BITMAP
80
C0
A0
F0
ENDCHAR

STARTCHAR WHITE
ENCODING 9723
SWIDTH 436 0
DWIDTH 5 0
BBX 6 6 0 0
BITMAP
FC
84
84
84
84
FC
ENDCHAR

STARTCHAR BLACK
ENCODING 9724
SWIDTH 436 0
DWIDTH 5 0
BBX 6 6 0 0
BITMAP
FC
FC
FC
FC
FC
FC
ENDCHAR

STARTCHAR WHITE
ENCODING 9725
SWIDTH 436 0
DWIDTH 5 0
BBX 5 5 0 1
BITMAP
F8
88
88
88
F8
ENDCHAR

STARTCHAR BLACK
ENCODING 9726
SWIDTH 436 0
DWIDTH 5 0
BBX 5 5 0 1
BITMAP
F8
F8
F8
F8
F8
ENDCHAR

STARTCHAR LOWER
ENCODING 9727
SWIDTH 436 0
DWIDTH 5 0
BBX 4 4 2 0
BITMAP
10
30
50
F0
ENDCHAR

STARTCHAR char9728
ENCODING 9728
SWIDTH 436 0
DWIDTH 5 0
BBX 5 7 0 -1
BITMAP
20
00
A8
70
A8
00
20
ENDCHAR

STARTCHAR char9729
ENCODING 9729
SWIDTH 436 0
DWIDTH 5 0
BBX 5 3 0 2
BITMAP
50
78
F8
ENDCHAR

STARTCHAR char9730
ENCODING 9730
SWIDTH 436 0
DWIDTH 5 0
BBX 5 5 0 0
BITMAP
70
F8
20
20
40
ENDCHAR

STARTCHAR char9732
ENCODING 9732
SWIDTH 436 0
DWIDTH 5 0
BBX 6 6 0 0
BITMAP
20
48
10
44
A8
40
ENDCHAR

STARTCHAR char9733
ENCODING 9733
SWIDTH 436 0
DWIDTH 5 0
BBX 5 6 0 0
BITMAP
20
20
F8
70
70
88
ENDCHAR

STARTCHAR char9734
ENCODING 9734
SWIDTH 436 0
DWIDTH 5 0
BBX 5 6 0 0
BITMAP
20
20
D8
50
70
88
ENDCHAR

STARTCHAR BLACK
ENCODING 9824
SWIDTH 436 0
DWIDTH 5 0
BBX 5 8 0 -1
BITMAP
20
20
70
F8
F8
70
20
70
ENDCHAR

STARTCHAR WHITE
ENCODING 9825
SWIDTH 436 0
DWIDTH 5 0
BBX 5 5 0 0
BITMAP
50
A8
88
50
20
ENDCHAR

STARTCHAR WHITE
ENCODING 9826
SWIDTH 436 0
DWIDTH 5 0
BBX 5 6 0 0
BITMAP
20
50
88
88
50
20
ENDCHAR

STARTCHAR BLACK
ENCODING 9827
SWIDTH 436 0
DWIDTH 5 0
BBX 5 8 0 -1
BITMAP
70
70
20
F8
F8
F8
20
70
ENDCHAR

STARTCHAR WHITE
ENCODING 9828
SWIDTH 436 0
DWIDTH 5 0
BBX 5 8 0 -1
BITMAP
20
20
50
88
88
70
20
70
ENDCHAR

STARTCHAR BLACK
ENCODING 9829
SWIDTH 436 0
DWIDTH 5 0
BBX 7 6 0 0
BITMAP
6C
FE
FE
7C
38
10
ENDCHAR

STARTCHAR BLACK
ENCODING 9830
SWIDTH 436 0
DWIDTH 5 0
BBX 5 9 0 -2
BITMAP
20
20
70
70
F8
70
70
20
20
ENDCHAR

STARTCHAR WHITE
ENCODING 9831
SWIDTH 436 0
DWIDTH 5 0
BBX 5 8 0 -1
BITMAP
70
50
20
F8
A8
F8
20
70
ENDCHAR

STARTCHAR char9833
ENCODING 9833
SWIDTH 436 0
DWIDTH 5 0
BBX 3 6 0 0
BITMAP
20
20
20
20
60
60
ENDCHAR

STARTCHAR char9834
ENCODING 9834
SWIDTH 436 0
DWIDTH 5 0
BBX 4 6 1 0
BITMAP
60
50
50
40
C0
C0
ENDCHAR

STARTCHAR char9835
ENCODING 9835
SWIDTH 436 0
DWIDTH 5 0
BBX 6 6 0 0
BITMAP
7C
44
44
44
CC
CC
ENDCHAR

STARTCHAR char9836
ENCODING 9836
SWIDTH 436 0
DWIDTH 5 0
BBX 6 6 0 0
BITMAP
7C
44
7C
44
CC
CC
ENDCHAR

STARTCHAR char9837
ENCODING 9837
SWIDTH 436 0
DWIDTH 5 0
BBX 3 6 0 0
BITMAP
80
80
80
E0
A0
C0
ENDCHAR

STARTCHAR MUSIC
ENCODING 9838
SWIDTH 436 0
DWIDTH 5 0
BBX 4 6 0 0
BITMAP
80
B0
D0
B0
D0
10
ENDCHAR

STARTCHAR char9839
ENCODING 9839
SWIDTH 436 0
DWIDTH 5 0
BBX 5 6 0 0
BITMAP
10
58
D0
58
D0
40
ENDCHAR

STARTCHAR char9992
ENCODING 9992
SWIDTH 436 0
DWIDTH 5 0
BBX 6 5 -1 0
BITMAP
20
90
FC
90
20
ENDCHAR

STARTCHAR char10003
ENCODING 10003
SWIDTH 436 0
DWIDTH 5 0
BBX 5 7 0 -1
BITMAP
08
10
10
A0
A0
40
40
ENDCHAR

STARTCHAR HEAVY
ENCODING 10004
SWIDTH 436 0
DWIDTH 5 0
BBX 6 8 0 -1
BITMAP
04
08
08
D0
50
50
20
20
ENDCHAR

STARTCHAR MULTIPLICATION
ENCODING 10005
SWIDTH 436 0
DWIDTH 5 0
BBX 5 5 0 0
BITMAP
88
50
20
50
88
ENDCHAR

STARTCHAR HEAVY
ENCODING 10006
SWIDTH 436 0
DWIDTH 5 0
BBX 5 5 0 0
BITMAP
D8
50
20
50
D8
ENDCHAR

STARTCHAR BALLOT
ENCODING 10007
SWIDTH 436 0
DWIDTH 5 0
BBX 5 7 0 0
BITMAP
08
48
50
20
50
90
80
ENDCHAR

STARTCHAR HEAVY
ENCODING 10008
SWIDTH 436 0
DWIDTH 5 0
BBX 5 7 0 0
BITMAP
08
58
70
20
70
D0
80
ENDCHAR

STARTCHAR HEAVY
ENCODING 10010
SWIDTH 436 0
DWIDTH 5 0
BBX 6 6 0 0
BITMAP
30
30
FC
FC
30
30
ENDCHAR

STARTCHAR OPEN
ENCODING 10011
SWIDTH 436 0
DWIDTH 5 0
BBX 5 5 0 1
BITMAP
20
20
D8
20
20
ENDCHAR

STARTCHAR HEAVY
ENCODING 10012
SWIDTH 436 0
DWIDTH 5 0
BBX 6 6 0 0
BITMAP
30
30
CC
CC
30
30
ENDCHAR

STARTCHAR LATIN
ENCODING 10013
SWIDTH 436 0
DWIDTH 5 0
BBX 5 6 0 0
BITMAP
20
20
F8
20
20
20
ENDCHAR

STARTCHAR SHADOWED
ENCODING 10014
SWIDTH 436 0
DWIDTH 5 0
BBX 6 7 0 0
BITMAP
30
30
FC
FC
30
30
30
ENDCHAR

STARTCHAR CIRCLED
ENCODING 10026
SWIDTH 436 0
DWIDTH 5 0
BBX 7 8 -1 -1
BITMAP
7C
EE
EE
82
C6
BA
FE
7C
ENDCHAR

STARTCHAR OPEN
ENCODING 10027
SWIDTH 436 0
DWIDTH 5 0
BBX 5 5 0 2
BITMAP
20
20
D8
70
88
ENDCHAR

STARTCHAR EIGHT
ENCODING 10035
SWIDTH 436 0
DWIDTH 5 0
BBX 5 7 0 -1
BITMAP
20
A8
70
F8
70
A8
20
ENDCHAR

STARTCHAR SIX
ENCODING 10038
SWIDTH 436 0
DWIDTH 5 0
BBX 5 6 0 0
BITMAP
20
A8
70
70
A8
20
ENDCHAR

STARTCHAR LOWER
ENCODING 10063
SWIDTH 436 0
DWIDTH 5 0
BBX 6 6 0 1
BITMAP
F8
8C
8C
8C
FC
7C
ENDCHAR

STARTCHAR UPPER
ENCODING 10064
SWIDTH 436 0
DWIDTH 5 0
BBX 6 6 0 1
BITMAP
7C
FC
8C
8C
8C
F8
ENDCHAR

STARTCHAR LOWER
ENCODING 10065
SWIDTH 436 0
DWIDTH 5 0
BBX 6 6 0 1
BITMAP
F8
8C
8C
8C
FC
7C
ENDCHAR

STARTCHAR UPPER
ENCODING 10066
SWIDTH 436 0
DWIDTH 5 0
BBX 6 6 0 1
BITMAP
7C
FC
8C
8C
8C
F8
ENDCHAR

STARTCHAR char10075
ENCODING 10075
SWIDTH 436 0
DWIDTH 5 0
BBX 2 4 2 3
BITMAP
40
80
C0
C0
ENDCHAR

STARTCHAR char10076
ENCODING 10076
SWIDTH 436 0
DWIDTH 5 0
BBX 2 4 2 3
BITMAP
C0
C0
40
80
ENDCHAR

STARTCHAR char10077
ENCODING 10077
SWIDTH 436 0
DWIDTH 5 0
BBX 5 4 1 3
BITMAP
48
90
D8
D8
ENDCHAR

STARTCHAR char10078
ENCODING 10078
SWIDTH 436 0
DWIDTH 5 0
BBX 5 4 1 3
BITMAP
D8
D8
48
90
ENDCHAR

STARTCHAR HEAVY
ENCODING 10080
SWIDTH 436 0
DWIDTH 5 0
BBX 5 4 0 -2
BITMAP
D8
D8
48
90
ENDCHAR

STARTCHAR HEAVY
ENCODING 10084
SWIDTH 436 0
DWIDTH 5 0
BBX 7 6 0 0
BITMAP
6C
FE
FE
7C
38
10
ENDCHAR

STARTCHAR MEDIUM
ENCODING 10092
SWIDTH 436 0
DWIDTH 5 0
BBX 5 7 0 0
BITMAP
18
30
60
C0
60
30
18
ENDCHAR

STARTCHAR MEDIUM
ENCODING 10093
SWIDTH 436 0
DWIDTH 5 0
BBX 5 7 0 0
BITMAP
C0
60
30
18
30
60
C0
ENDCHAR

STARTCHAR HEAVY
ENCODING 10094
SWIDTH 436 0
DWIDTH 5 0
BBX 6 8 0 -1
BITMAP
1C
38
70
E0
E0
70
38
1C
ENDCHAR

STARTCHAR HEAVY
ENCODING 10095
SWIDTH 436 0
DWIDTH 5 0
BBX 6 8 0 -1
BITMAP
E0
70
38
1C
1C
38
70
E0
ENDCHAR

STARTCHAR HEAVY
ENCODING 10096
SWIDTH 436 0
DWIDTH 5 0
BBX 6 8 0 -1
BITMAP
3C
78
F0
E0
E0
F0
78
3C
ENDCHAR

STARTCHAR HEAVY
ENCODING 10097
SWIDTH 436 0
DWIDTH 5 0
BBX 6 8 0 -1
BITMAP
F0
78
3C
1C
1C
3C
78
F0
ENDCHAR

STARTCHAR HEAVY
ENCODING 10102
SWIDTH 436 0
DWIDTH 5 0
BBX 6 8 0 -1
BITMAP
F0
78
3C
1C
1C
3C
78
F0
ENDCHAR

STARTCHAR DINGBAT
ENCODING 10123
SWIDTH 436 0
DWIDTH 5 0
BBX 6 8 0 -1
BITMAP
78
CC
EC
EC
EC
EC
C4
78
ENDCHAR

STARTCHAR DINGBAT
ENCODING 10124
SWIDTH 436 0
DWIDTH 5 0
BBX 6 8 0 -1
BITMAP
78
CC
B4
F4
EC
DC
84
78
ENDCHAR

STARTCHAR DINGBAT
ENCODING 10125
SWIDTH 436 0
DWIDTH 5 0
BBX 6 8 0 -1
BITMAP
78
8C
F4
CC
F4
F4
8C
78
ENDCHAR

STARTCHAR DINGBAT
ENCODING 10126
SWIDTH 436 0
DWIDTH 5 0
BBX 6 8 0 -1
BITMAP
78
E4
D4
B4
84
F4
F4
78
ENDCHAR

STARTCHAR DINGBAT
ENCODING 10127
SWIDTH 436 0
DWIDTH 5 0
BBX 6 8 0 -1
BITMAP
78
84
BC
8C
F4
F4
8C
78
ENDCHAR

STARTCHAR DINGBAT
ENCODING 10128
SWIDTH 436 0
DWIDTH 5 0
BBX 6 8 0 -1
BITMAP
78
CC
BC
8C
B4
B4
CC
78
ENDCHAR

STARTCHAR DINGBAT
ENCODING 10129
SWIDTH 436 0
DWIDTH 5 0
BBX 6 8 0 -1
BITMAP
78
84
F4
EC
EC
DC
DC
78
ENDCHAR

STARTCHAR DINGBAT
ENCODING 10130
SWIDTH 436 0
DWIDTH 5 0
BBX 6 8 0 -1
BITMAP
78
CC
B4
CC
B4
B4
CC
78
ENDCHAR

STARTCHAR DINGBAT
ENCODING 10131
SWIDTH 436 0
DWIDTH 5 0
BBX 6 8 0 -1
BITMAP
78
CC
B4
B4
C4
F4
CC
78
ENDCHAR

STARTCHAR DINGBAT
ENCODING 10132
SWIDTH 436 0
DWIDTH 5 0
BBX 7 8 0 -1
BITMAP
7C
B6
AA
AA
AA
AA
B6
7C
ENDCHAR

STARTCHAR HEAVY
ENCODING 10133
SWIDTH 436 0
DWIDTH 5 0
BBX 5 5 0 0
BITMAP
20
10
F8
10
20
ENDCHAR

STARTCHAR HEAVY
ENCODING 10134
SWIDTH 436 0
DWIDTH 5 0
BBX 6 6 0 0
BITMAP
30
30
FC
FC
30
30
ENDCHAR

STARTCHAR HEAVY
ENCODING 10135
SWIDTH 436 0
DWIDTH 5 0
BBX 6 2 0 2
BITMAP
FC
FC
ENDCHAR

STARTCHAR HEAVY
ENCODING 10136
SWIDTH 436 0
DWIDTH 5 0
BBX 6 6 0 0
BITMAP
30
00
FC
FC
00
30
ENDCHAR

STARTCHAR HEAVY
ENCODING 10137
SWIDTH 436 0
DWIDTH 5 0
BBX 5 5 0 0
BITMAP
80
40
28
18
38
ENDCHAR

STARTCHAR HEAVY
ENCODING 10138
SWIDTH 436 0
DWIDTH 5 0
BBX 5 3 0 1
BITMAP
10
F8
10
ENDCHAR

STARTCHAR HEAVY
ENCODING 10139
SWIDTH 436 0
DWIDTH 5 0
BBX 5 5 0 0
BITMAP
38
18
28
40
80
ENDCHAR

STARTCHAR DRAFTING
ENCODING 10140
SWIDTH 436 0
DWIDTH 5 0
BBX 8 5 -2 0
BITMAP
10
0C
FF
0C
10
ENDCHAR

STARTCHAR char11104
ENCODING 11104
SWIDTH 436 0
DWIDTH 5 0
BBX 5 8 1 -1
BITMAP
90
B8
90
90
E0
80
80
80
ENDCHAR

STARTCHAR char11105
ENCODING 11105
SWIDTH 436 0
DWIDTH 5 0
BBX 4 9 1 -1
BITMAP
80
80
80
F0
00
90
D0
B0
90
ENDCHAR

STARTCHAR char11106
ENCODING 11106
SWIDTH 0 0
DWIDTH 0 0
BBX 0 0 0 0
BITMAP
ENDCHAR

STARTCHAR char11107
ENCODING 11107
SWIDTH 0 0
DWIDTH 0 0
BBX 0 0 0 0
BITMAP
ENDCHAR

STARTCHAR char11108
ENCODING 11108
SWIDTH 436 0
DWIDTH 5 0
BBX 6 9 0 -1
BITMAP
30
48
48
48
FC
CC
CC
FC
78
ENDCHAR

STARTCHAR char11136
ENCODING 11136
SWIDTH 436 0
DWIDTH 5 0
BBX 5 9 0 -1
BITMAP
80
C0
E0
F0
F8
F0
E0
C0
80
ENDCHAR

STARTCHAR char11137
ENCODING 11137
SWIDTH 436 0
DWIDTH 5 0
BBX 5 9 0 -1
BITMAP
80
40
20
10
08
10
20
40
80
ENDCHAR

STARTCHAR char11138
ENCODING 11138
SWIDTH 436 0
DWIDTH 5 0
BBX 5 9 0 -1
BITMAP
08
18
38
78
F8
78
38
18
08
ENDCHAR

STARTCHAR char11139
ENCODING 11139
SWIDTH 436 0
DWIDTH 5 0
BBX 5 9 1 -1
BITMAP
08
10
20
40
80
40
20
10
08
ENDCHAR

STARTCHAR bat
ENCODING 11150
SWIDTH 436 0
DWIDTH 5 0
BBX 5 7 0 0
BITMAP
20
F8
A8
88
D8
D8
F8
ENDCHAR

STARTCHAR bat
ENCODING 11151
SWIDTH 436 0
DWIDTH 5 0
BBX 5 7 0 0
BITMAP
20
F8
88
A8
A8
88
F8
ENDCHAR

STARTCHAR bat
ENCODING 11152
SWIDTH 436 0
DWIDTH 5 0
BBX 5 7 0 0
BITMAP
20
F8
88
88
88
88
F8
ENDCHAR

STARTCHAR bat
ENCODING 11153
SWIDTH 436 0
DWIDTH 5 0
BBX 5 7 0 0
BITMAP
20
F8
88
88
A8
88
F8
ENDCHAR

STARTCHAR bat
ENCODING 11154
SWIDTH 436 0
DWIDTH 5 0
BBX 5 7 0 0
BITMAP
20
F8
E8
98
C8
B8
F8
ENDCHAR

STARTCHAR play
ENCODING 11155
SWIDTH 436 0
DWIDTH 5 0
BBX 3 6 1 0
BITMAP
80
C0
E0
E0
C0
80
ENDCHAR

STARTCHAR pause
ENCODING 11156
SWIDTH 436 0
DWIDTH 5 0
BBX 5 6 0 0
BITMAP
D8
D8
D8
D8
D8
D8
ENDCHAR

STARTCHAR music
ENCODING 11157
SWIDTH 436 0
DWIDTH 5 0
BBX 6 6 0 0
BITMAP
7C
44
44
44
CC
CC
ENDCHAR

STARTCHAR clock
ENCODING 11158
SWIDTH 436 0
DWIDTH 5 0
BBX 6 6 0 0
BITMAP
78
DC
DC
C4
FC
78
ENDCHAR

STARTCHAR arch
ENCODING 11159
SWIDTH 436 0
DWIDTH 5 0
BBX 5 7 0 0
BITMAP
20
20
70
70
50
D8
88
ENDCHAR

STARTCHAR tiled
ENCODING 11160
SWIDTH 436 0
DWIDTH 5 0
BBX 6 6 0 0
BITMAP
EC
EC
EC
E0
EC
EC
ENDCHAR

STARTCHAR tiled
ENCODING 11161
SWIDTH 436 0
DWIDTH 5 0
BBX 6 6 0 0
BITMAP
DC
DC
DC
1C
DC
DC
ENDCHAR

STARTCHAR tiled
ENCODING 11162
SWIDTH 436 0
DWIDTH 5 0
BBX 6 6 0 0
BITMAP
FC
FC
FC
00
EC
EC
ENDCHAR

STARTCHAR float
ENCODING 11163
SWIDTH 436 0
DWIDTH 5 0
BBX 6 6 0 0
BITMAP
F0
F0
F4
F4
04
3C
ENDCHAR

STARTCHAR headphones
ENCODING 11164
SWIDTH 436 0
DWIDTH 5 0
BBX 5 6 0 0
BITMAP
70
88
88
88
D8
50
ENDCHAR

STARTCHAR muted
ENCODING 11165
SWIDTH 436 0
DWIDTH 5 0
BBX 6 6 0 0
BITMAP
90
50
A0
D0
38
14
ENDCHAR

STARTCHAR loud
ENCODING 11166
SWIDTH 436 0
DWIDTH 5 0
BBX 7 6 -1 0
BITMAP
12
34
F2
F2
34
12
ENDCHAR

STARTCHAR soft
ENCODING 11167
SWIDTH 436 0
DWIDTH 5 0
BBX 4 6 0 0
BITMAP
10
30
F0
F0
30
10
ENDCHAR

STARTCHAR heart
ENCODING 11168
SWIDTH 436 0
DWIDTH 5 0
BBX 6 5 0 0
BITMAP
48
FC
FC
78
30
ENDCHAR

STARTCHAR cpu
ENCODING 11169
SWIDTH 436 0
DWIDTH 5 0
BBX 5 6 0 0
BITMAP
A8
00
F8
F8
00
A8
ENDCHAR

STARTCHAR pacman
ENCODING 11170
SWIDTH 436 0
DWIDTH 5 0
BBX 5 5 0 0
BITMAP
70
D8
F0
C0
70
ENDCHAR

STARTCHAR mail
ENCODING 11171
SWIDTH 523 0
DWIDTH 6 0
BBX 7 5 0 0
BITMAP
FE
BA
D6
EE
FE
ENDCHAR

STARTCHAR data
ENCODING 11172
SWIDTH 436 0
DWIDTH 5 0
BBX 6 6 0 0
BITMAP
FC
84
84
BC
AC
7C
ENDCHAR

STARTCHAR simon
ENCODING 11173
SWIDTH 436 0
DWIDTH 5 0
BBX 7 7 -1 -1
BITMAP
64
BA
7E
6C
FC
BA
4C
ENDCHAR

STARTCHAR core
ENCODING 11174
SWIDTH 436 0
DWIDTH 5 0
BBX 7 7 0 -1
BITMAP
D6
82
38
BA
38
82
D6
ENDCHAR

STARTCHAR grid
ENCODING 11175
SWIDTH 436 0
DWIDTH 5 0
BBX 5 5 0 0
BITMAP
D8
D8
00
D8
D8
ENDCHAR

STARTCHAR daze
ENCODING 11176
SWIDTH 436 0
DWIDTH 5 0
BBX 6 6 0 0
BITMAP
EC
E0
EC
E0
EC
EC
ENDCHAR

STARTCHAR term
ENCODING 11177
SWIDTH 436 0
DWIDTH 5 0
BBX 6 6 0 0
BITMAP
FC
BC
DC
A4
FC
FC
ENDCHAR

STARTCHAR lock
ENCODING 11178
SWIDTH 436 0
DWIDTH 5 0
BBX 5 7 0 -1
BITMAP
70
50
50
F8
D8
F8
70
ENDCHAR

STARTCHAR ichi
ENCODING 11179
SWIDTH 436 0
DWIDTH 5 0
BBX 4 1 0 3
BITMAP
F0
ENDCHAR

STARTCHAR ni
ENCODING 11180
SWIDTH 436 0
DWIDTH 5 0
BBX 4 3 0 2
BITMAP
F0
00
F0
ENDCHAR

STARTCHAR san
ENCODING 11181
SWIDTH 436 0
DWIDTH 5 0
BBX 5 5 0 1
BITMAP
F8
00
70
00
F8
ENDCHAR

STARTCHAR yon
ENCODING 11182
SWIDTH 436 0
DWIDTH 5 0
BBX 5 5 0 1
BITMAP
F8
A8
F8
88
F8
ENDCHAR

STARTCHAR go
ENCODING 11183
SWIDTH 436 0
DWIDTH 5 0
BBX 5 5 0 1
BITMAP
F0
40
70
50
F8
ENDCHAR

STARTCHAR cpu
ENCODING 11184
SWIDTH 436 0
DWIDTH 5 0
BBX 7 7 0 -1
BITMAP
54
FE
64
D6
4C
FE
54
ENDCHAR

STARTCHAR squiglies
ENCODING 11185
SWIDTH 436 0
DWIDTH 5 0
BBX 4 5 1 0
BITMAP
50
A0
00
50
A0
ENDCHAR

STARTCHAR next
ENCODING 11186
SWIDTH 436 0
DWIDTH 5 0
BBX 5 6 1 0
BITMAP
88
C8
E8
E8
C8
88
ENDCHAR

STARTCHAR prev
ENCODING 11187
SWIDTH 436 0
DWIDTH 5 0
BBX 5 6 1 0
BITMAP
88
98
B8
B8
98
88
ENDCHAR

STARTCHAR up
ENCODING 11188
SWIDTH 436 0
DWIDTH 5 0
BBX 7 8 0 -1
BITMAP
10
38
7C
FE
38
38
38
70
ENDCHAR

STARTCHAR down
ENCODING 11189
SWIDTH 436 0
DWIDTH 5 0
BBX 7 8 0 -1
BITMAP
1C
38
38
38
FE
7C
38
10
ENDCHAR

STARTCHAR bar
ENCODING 11190
SWIDTH 436 0
DWIDTH 5 0
BBX 5 1 1 2
BITMAP
F8
ENDCHAR

STARTCHAR good
ENCODING 11191
SWIDTH 436 0
DWIDTH 5 0
BBX 5 6 0 0
BITMAP
08
08
28
28
A8
A8
ENDCHAR

STARTCHAR okay
ENCODING 11192
SWIDTH 436 0
DWIDTH 5 0
BBX 5 4 0 0
BITMAP
20
20
A0
A8
ENDCHAR

STARTCHAR shit
ENCODING 11193
SWIDTH 436 0
DWIDTH 5 0
BBX 5 2 0 0
BITMAP
80
A8
ENDCHAR

STARTCHAR temp
ENCODING 11194
SWIDTH 436 0
DWIDTH 5 0
BBX 7 8 0 -1
BITMAP
10
06
4E
14
68
90
90
60
ENDCHAR

STARTCHAR pen
ENCODING 11195
SWIDTH 436 0
DWIDTH 5 0
BBX 7 7 0 -1
BITMAP
06
1E
3C
3C
78
A0
C0
ENDCHAR

STARTCHAR globe
ENCODING 11196
SWIDTH 436 0
DWIDTH 5 0
BBX 6 6 0 0
BITMAP
78
AC
E4
AC
C4
78
ENDCHAR

STARTCHAR some
ENCODING 11197
SWIDTH 436 0
DWIDTH 5 0
BBX 6 5 0 0
BITMAP
B4
30
B4
30
B4
ENDCHAR

STARTCHAR w_cloud
ENCODING 11198
SWIDTH 436 0
DWIDTH 5 0
BBX 7 5 0 1
BITMAP
38
7C
FE
FE
6C
ENDCHAR

STARTCHAR w_lightning
ENCODING 11199
SWIDTH 436 0
DWIDTH 5 0
BBX 7 8 0 -2
BITMAP
38
7C
FE
FE
6C
10
30
20
ENDCHAR

STARTCHAR w_rain
ENCODING 11200
SWIDTH 436 0
DWIDTH 5 0
BBX 7 8 0 -2
BITMAP
38
7C
FE
FE
6C
00
54
A8
ENDCHAR

STARTCHAR w_snow
ENCODING 11201
SWIDTH 436 0
DWIDTH 5 0
BBX 7 9 0 -3
BITMAP
38
7C
FE
FE
6C
00
90
28
12
ENDCHAR

STARTCHAR w_hail
ENCODING 11202
SWIDTH 436 0
DWIDTH 5 0
BBX 7 9 0 -3
BITMAP
38
7C
FE
FE
6C
10
44
10
44
ENDCHAR

STARTCHAR w_morerainidunno
ENCODING 11203
SWIDTH 436 0
DWIDTH 5 0
BBX 7 8 0 -2
BITMAP
38
7C
FE
FE
6C
00
44
10
ENDCHAR

STARTCHAR w_partly
ENCODING 11204
SWIDTH 436 0
DWIDTH 5 0
BBX 8 7 -1 0
BITMAP
0A
2C
73
E2
F3
FC
5A
ENDCHAR

STARTCHAR w_partlymoon
ENCODING 11205
SWIDTH 436 0
DWIDTH 5 0
BBX 8 8 -1 0
BITMAP
08
10
10
59
EE
F0
FC
58
ENDCHAR

STARTCHAR w_moon
ENCODING 11206
SWIDTH 436 0
DWIDTH 5 0
BBX 5 5 0 0
BITMAP
40
80
80
C8
70
ENDCHAR

STARTCHAR w_sun
ENCODING 11207
SWIDTH 436 0
DWIDTH 5 0
BBX 7 7 0 0
BITMAP
92
7C
44
C6
44
7C
92
ENDCHAR

STARTCHAR w_wind
ENCODING 11208
SWIDTH 436 0
DWIDTH 5 0
BBX 8 7 -1 -1
BITMAP
18
F8
03
FF
00
FC
0C
ENDCHAR

STARTCHAR char57344
ENCODING 57344
SWIDTH 610 0
DWIDTH 7 0
BBX 6 6 1 0
BITMAP
30
78
78
30
78
FC
ENDCHAR

STARTCHAR char57345
ENCODING 57345
SWIDTH 349 0
DWIDTH 4 0
BBX 4 6 0 0
BITMAP
40
60
70
70
60
40
ENDCHAR

STARTCHAR char57346
ENCODING 57346
SWIDTH 349 0
DWIDTH 4 0
BBX 4 6 0 0
BITMAP
10
30
70
70
30
10
ENDCHAR

STARTCHAR char57347
ENCODING 57347
SWIDTH 610 0
DWIDTH 7 0
BBX 7 7 0 -1
BITMAP
10
38
7C
FE
38
38
70
ENDCHAR

STARTCHAR char57348
ENCODING 57348
SWIDTH 610 0
DWIDTH 7 0
BBX 7 7 0 -1
BITMAP
1C
38
38
FE
7C
38
10
ENDCHAR

STARTCHAR char57349
ENCODING 57349
SWIDTH 523 0
DWIDTH 6 0
BBX 7 7 -1 -1
BITMAP
10
98
FC
FE
7C
18
10
ENDCHAR

STARTCHAR char57350
ENCODING 57350
SWIDTH 523 0
DWIDTH 6 0
BBX 7 7 -1 -1
BITMAP
10
30
7C
FE
7E
32
10
ENDCHAR

STARTCHAR char57351
ENCODING 57351
SWIDTH 610 0
DWIDTH 7 0
BBX 6 6 1 1
BITMAP
08
18
BC
BC
BC
B8
ENDCHAR

STARTCHAR char57352
ENCODING 57352
SWIDTH 610 0
DWIDTH 7 0
BBX 7 6 0 -1
BITMAP
5C
5E
5E
5E
0C
04
ENDCHAR

STARTCHAR char57353
ENCODING 57353
SWIDTH 610 0
DWIDTH 7 0
BBX 6 7 1 0
BITMAP
78
48
78
48
78
30
CC
ENDCHAR

STARTCHAR char57758
ENCODING 57758
SWIDTH 610 0
DWIDTH 7 0
BBX 7 7 0 0
BITMAP
7E
7E
18
7E
5A
42
7E
ENDCHAR
ENDFONT
